<?xml version="1.0" standalone="no"?>
<!DOCTYPE svg PUBLIC "-//W3C//DTD SVG 20010904//EN"
 "http://www.w3.org/TR/2001/REC-SVG-20010904/DTD/svg10.dtd">
<svg version="1.0" xmlns="http://www.w3.org/2000/svg"
 width="700.000000pt" height="700.000000pt" viewBox="0 0 700.000000 700.000000"
 preserveAspectRatio="xMidYMid meet">
<metadata>
Created by potrace 1.11, written by Peter Selinger 2001-2013
</metadata>
<g transform="translate(0.000000,700.000000) scale(0.100000,-0.100000)"
fill="#000000" stroke="none">
<path d="M0 3500 l0 -3500 3500 0 3500 0 0 3500 0 3500 -3500 0 -3500 0 0
-3500z m5806 2441 c8 -1 11 -104 11 -371 0 -203 -3 -370 -6 -371 -15 -3 -227
-7 -586 -13 -592 -9 -1076 -17 -1214 -20 -124 -3 -125 -3 -148 -32 -42 -51
-84 -145 -109 -243 -52 -205 -52 -185 -50 -1531 l1 -1255 28 -57 c16 -32 45
-71 65 -88 92 -76 269 -91 507 -45 39 8 81 16 95 19 14 2 63 13 110 25 149 36
260 61 270 61 6 0 10 -68 10 -170 l0 -170 -87 -41 c-73 -34 -306 -142 -668
-309 -33 -15 -113 -53 -179 -84 -65 -31 -119 -56 -121 -56 -2 0 -51 -22 -109
-50 -128 -60 -177 -74 -289 -84 -63 -6 -199 36 -248 76 -60 50 -110 165 -125
288 -4 36 -8 663 -8 1393 l-1 1328 27 107 c89 360 253 674 450 863 21 20 38
41 38 45 0 11 -872 11 -950 0 -158 -22 -347 -91 -528 -193 -78 -44 -315 -196
-332 -213 -24 -24 -251 -171 -259 -168 -9 3 -145 172 -190 236 -12 18 -21 36
-19 40 2 5 48 48 103 97 55 50 102 92 105 95 8 8 256 227 335 296 123 107 337
273 440 341 204 136 428 232 587 252 45 5 2945 7 3044 2z"/>
</g>
</svg>
